<svg xmlns="http://www.w3.org/2000/svg" width="340" height="125.164" viewBox="0 0 340 125.164">
  <g id="Group_39125" data-name="Group 39125" transform="translate(0 -277.259)">
    <path id="Path_57359" data-name="Path 57359" d="M477.583,332.938A62.582,62.582,0,1,1,415,270.356a62.582,62.582,0,0,1,62.582,62.582" transform="translate(-247.844 6.903)" fill="#f4f4f4"/>
    <g id="Group_39110" data-name="Group 39110" transform="translate(0 299.513)">
      <path id="Path_57329" data-name="Path 57329" d="M1128.408,127.772H1115.06a5.794,5.794,0,0,0-5.658,5.91v25.239a5.794,5.794,0,0,0,5.658,5.91h13.348Zm-13.348,35.735a4.5,4.5,0,0,1-4.391-4.586V133.682a4.5,4.5,0,0,1,4.391-4.586h12.081v34.412Z" transform="translate(-931.577 -105.934)" fill="#959595"/>
      <path id="Path_57330" data-name="Path 57330" d="M1221.845,120a3.644,3.644,0,0,0-3.64,3.64v32.426a3.64,3.64,0,1,0,7.279,0V123.64a3.644,3.644,0,0,0-3.64-3.64m0,38.382a2.319,2.319,0,0,1-2.316-2.316V123.64a2.316,2.316,0,1,1,4.632,0v32.426a2.319,2.319,0,0,1-2.316,2.316" transform="translate(-1022.505 -99.485)" fill="#959595"/>
      <path id="Path_57331" data-name="Path 57331" d="M1258.653,170.517h-5.476v22.5h5.476a4.261,4.261,0,0,0,4.2-4.308V174.826a4.261,4.261,0,0,0-4.2-4.309m-4.186,1.324h4.186a2.952,2.952,0,0,1,2.91,2.985v13.883a2.951,2.951,0,0,1-2.91,2.985h-4.186Z" transform="translate(-1051.701 -141.4)" fill="#959595"/>
      <path id="Path_57332" data-name="Path 57332" d="M1313.422,203.546h-9.729V214.8h9.729a5.633,5.633,0,0,0,0-11.25m-8.473,1.324h8.473a4.308,4.308,0,0,1,0,8.6h-8.473Z" transform="translate(-1093.756 -168.803)" fill="#959595"/>
      <path id="Path_57333" data-name="Path 57333" d="M1048.524,168.573h-10.176a2.985,2.985,0,0,0,0,5.956h10.176Zm-10.176,4.632a1.659,1.659,0,0,1,0-3.309h8.943v3.309Z" transform="translate(-869.403 -122.58)" fill="#959595"/>
      <path id="Path_57334" data-name="Path 57334" d="M1048.524,269.6h-10.176a2.985,2.985,0,0,0,0,5.956h10.176Zm-10.176,4.632a1.659,1.659,0,0,1,0-3.309h8.943v3.309Z" transform="translate(-869.403 -240.817)" fill="#959595"/>
      <path id="Path_57335" data-name="Path 57335" d="M1115.689,219.089H1109.4v5.956h6.287a2.978,2.978,0,0,0,0-5.956m-4.964,1.324h4.964a1.654,1.654,0,0,1,0,3.309h-4.964Z" transform="translate(-931.242 -181.699)" fill="#959595"/>
      <path id="Path_57336" data-name="Path 57336" d="M1279.1,193.831a.662.662,0,0,0-.661.662v13.235a.662.662,0,1,0,1.324,0V194.493a.662.662,0,0,0-.662-.662" transform="translate(-1072.854 -160.743)" fill="#959595"/>
      <path id="Path_57337" data-name="Path 57337" d="M854.385,127.772H839.917a4.529,4.529,0,0,0-4.465,4.582v27.1a4.529,4.529,0,0,0,4.465,4.582h14.468Zm-14.468,34.97a3.249,3.249,0,0,1-3.2-3.286v-27.1a3.249,3.249,0,0,1,3.2-3.286h13.206v33.675Z" transform="translate(-701.538 -105.934)" fill="#959595"/>
      <path id="Path_57338" data-name="Path 57338" d="M947.895,123.886a3.644,3.644,0,0,0-3.64,3.64v32.426a3.64,3.64,0,1,0,7.279,0V127.526a3.644,3.644,0,0,0-3.64-3.64m0,38.382a2.319,2.319,0,0,1-2.316-2.316V127.526a2.316,2.316,0,1,1,4.632,0v32.426a2.319,2.319,0,0,1-2.316,2.316" transform="translate(-792.564 -104.033)" fill="#959595"/>
      <path id="Path_57339" data-name="Path 57339" d="M795.705,170.516h-5a4.1,4.1,0,0,0-3.831,4.308v13.883a4.1,4.1,0,0,0,3.831,4.309h5Zm-5,21.176a2.837,2.837,0,0,1-2.654-2.985V174.824a2.837,2.837,0,0,1,2.654-2.985h3.818v19.853Z" transform="translate(-660.527 -141.398)" fill="#959595"/>
      <path id="Path_57340" data-name="Path 57340" d="M716.411,203.546h-9.7a5.634,5.634,0,0,0,0,11.25h9.7Zm-9.7,9.926a4.308,4.308,0,0,1,0-8.6h8.449v8.6Z" transform="translate(-588.885 -168.803)" fill="#959595"/>
      <path id="Path_57341" data-name="Path 57341" d="M812.8,193.831a.662.662,0,0,0-.662.662v13.235a.662.662,0,1,0,1.323,0V194.493a.662.662,0,0,0-.662-.662" transform="translate(-681.54 -160.743)" fill="#959595"/>
      <path id="Path_57348" data-name="Path 57348" d="M1502.663,203.482c-.15.006-15.314.757-35.769,8.642-20.236,7.8-79.734,2.43-80.332,2.375l-.109,1.318c2.456.227,60.373,5.451,80.867-2.449,20.274-7.816,35.246-8.557,35.395-8.564Z" transform="translate(-1163.349 -171.717)" fill="#959595"/>
      <path id="Path_57349" data-name="Path 57349" d="M1501.812,238.237a39.649,39.649,0,0,0-5.645.874c-3.6.695-8.249,1.7-13.085,2.817-5.8,1.346-20.081,4.784-27.378,7.636-11.6,4.532-68.653.989-69.228.953a.632.632,0,0,0-.66.621.649.649,0,0,0,.585.7c2.359.149,57.893,3.594,69.734-1.032,11.6-4.532,43.37-11.419,45.729-11.253a.6.6,0,0,0,.664-.15.691.691,0,0,0,0-.936c-.117-.123-.217-.23-.718-.23" transform="translate(-1162.713 -213.126)" fill="#959595"/>
      <path id="Path_57350" data-name="Path 57350" d="M875.8,197.717h-8.6a.662.662,0,0,0,0,1.324h8.6a.662.662,0,1,0,0-1.324" transform="translate(-727.396 -152.055)" fill="#959595"/>
      <path id="Path_57351" data-name="Path 57351" d="M875.8,221.032h-8.6a.662.662,0,0,0,0,1.324h8.6a.662.662,0,1,0,0-1.324" transform="translate(-727.396 -179.341)" fill="#959595"/>
      <path id="Path_57352" data-name="Path 57352" d="M875.8,244.347h-8.6a.662.662,0,0,0,0,1.324h8.6a.662.662,0,1,0,0-1.324" transform="translate(-727.396 -206.627)" fill="#959595"/>
      <path id="Path_57353" data-name="Path 57353" d="M875.8,267.662h-8.6a.662.662,0,0,0,0,1.324h8.6a.662.662,0,1,0,0-1.324" transform="translate(-727.396 -233.912)" fill="#959595"/>
      <path id="Path_57354" data-name="Path 57354" d="M.623,199.965a.633.633,0,0,0-.608.518.664.664,0,0,0,.474.79c.225.053,22.783,5.358,50.538,10.594,27.841,5.253,62.865-.23,63.215-.286a.657.657,0,0,0,.524-.753.63.63,0,0,0-.709-.556c-.349.055-35.173,5.5-62.812.292C23.517,205.333.983,200.034.759,199.981a.59.59,0,0,0-.136-.016" transform="translate(0 -167.538)" fill="#959595"/>
      <path id="Path_57355" data-name="Path 57355" d="M.624,232.692a.632.632,0,0,0-.608.52A.663.663,0,0,0,.491,234c.166.038,16.7,3.875,30.786,7.024,1.957.438,4.023.972,6.7,1.733,13.579,3.865,36.593,4.488,36.825,4.493s18.765-.566,38.919-2.26a.651.651,0,0,0,.572-.712.63.63,0,0,0-.671-.608c-20.121,1.691-38.639,2.251-38.823,2.257s-23.065-.625-36.5-4.449c-2.7-.768-4.783-1.307-6.764-1.75C17.449,236.581.923,232.745.758,232.707a.616.616,0,0,0-.134-.015" transform="translate(-0.001 -206.221)" fill="#959595"/>
      <g id="Group_64593" data-name="Group 64593" transform="translate(-4047.565 -6931.008)" opacity="0.38">
        <path id="Path_63279" data-name="Path 63279" d="M4214.857,6948.916a.75.75,0,0,1-.75-.75v-10.047a.75.75,0,0,1,1.5,0v10.047A.75.75,0,0,1,4214.857,6948.916Z" fill="#707070"/>
        <path id="Path_63280" data-name="Path 63280" d="M4214.857,6944.585a.75.75,0,0,1-.75-.75v-5.717a.75.75,0,0,1,1.5,0v5.717A.75.75,0,0,1,4214.857,6944.585Z" transform="translate(5459.271 -1080.378) rotate(40)" fill="#707070"/>
        <path id="Path_63281" data-name="Path 63281" d="M4214.857,6944.585a.75.75,0,0,1-.75-.75v-5.717a.75.75,0,0,1,1.5,0v5.717A.75.75,0,0,1,4214.857,6944.585Z" transform="translate(12091.43 8873.803) rotate(135)" fill="#707070"/>
        <g id="Group_43317" data-name="Group 43317" transform="translate(2 -2.339)">
          <path id="Path_63282" data-name="Path 63282" d="M4214.857,6944.585a.75.75,0,0,1-.75-.75v-5.717a.75.75,0,0,1,1.5,0v5.717A.75.75,0,0,1,4214.857,6944.585Z" transform="translate(12077.43 8860.803) rotate(135)" fill="#707070"/>
          <path id="Path_63283" data-name="Path 63283" d="M4214.857,6944.585a.75.75,0,0,1-.75-.75v-5.717a.75.75,0,0,1,1.5,0v5.717A.75.75,0,0,1,4214.857,6944.585Z" transform="translate(2261.406 14821.51) rotate(-135)" fill="#707070"/>
        </g>
        <g id="Group_43318" data-name="Group 43318" transform="translate(6178.063 -933.784) rotate(45)">
          <path id="Path_63282-2" data-name="Path 63282" d="M4214.857,6944.585a.75.75,0,0,1-.75-.75v-5.717a.75.75,0,0,1,1.5,0v5.717A.75.75,0,0,1,4214.857,6944.585Z" transform="translate(12077.43 8860.803) rotate(135)" fill="#707070"/>
          <path id="Path_63283-2" data-name="Path 63283" d="M4214.857,6944.585a.75.75,0,0,1-.75-.75v-5.717a.75.75,0,0,1,1.5,0v5.717A.75.75,0,0,1,4214.857,6944.585Z" transform="translate(2261.406 14821.51) rotate(-135)" fill="#707070"/>
        </g>
        <circle id="Ellipse_3091" data-name="Ellipse 3091" cx="3" cy="3" r="3" transform="translate(4211.857 6924.724)" fill="#707070"/>
        <circle id="Ellipse_3094" data-name="Ellipse 3094" cx="1.5" cy="1.5" r="1.5" transform="matrix(-0.545, 0.839, -0.839, -0.545, 4250.721, 6947.286)" fill="#707070"/>
        <circle id="Ellipse_3095" data-name="Ellipse 3095" cx="1.5" cy="1.5" r="1.5" transform="matrix(-0.545, 0.839, -0.839, -0.545, 4181.721, 6950.55)" fill="#707070"/>
      </g>
      <g id="Group_64594" data-name="Group 64594" transform="translate(4381.498 7010.39) rotate(180)" opacity="0.38">
        <path id="Path_63279-2" data-name="Path 63279" d="M4214.857,6948.916a.75.75,0,0,1-.75-.75v-10.047a.75.75,0,0,1,1.5,0v10.047A.75.75,0,0,1,4214.857,6948.916Z" fill="#707070"/>
        <path id="Path_63280-2" data-name="Path 63280" d="M4214.857,6944.585a.75.75,0,0,1-.75-.75v-5.717a.75.75,0,0,1,1.5,0v5.717A.75.75,0,0,1,4214.857,6944.585Z" transform="translate(5459.271 -1080.378) rotate(40)" fill="#707070"/>
        <path id="Path_63281-2" data-name="Path 63281" d="M4214.857,6944.585a.75.75,0,0,1-.75-.75v-5.717a.75.75,0,0,1,1.5,0v5.717A.75.75,0,0,1,4214.857,6944.585Z" transform="translate(12091.43 8873.803) rotate(135)" fill="#707070"/>
        <g id="Group_43317-2" data-name="Group 43317" transform="translate(-6 6.503)">
          <path id="Path_63282-3" data-name="Path 63282" d="M4214.857,6944.585a.75.75,0,0,1-.75-.75v-5.717a.75.75,0,0,1,1.5,0v5.717A.75.75,0,0,1,4214.857,6944.585Z" transform="translate(12077.43 8860.803) rotate(135)" fill="#707070"/>
          <path id="Path_63283-3" data-name="Path 63283" d="M4214.857,6944.585a.75.75,0,0,1-.75-.75v-5.717a.75.75,0,0,1,1.5,0v5.717A.75.75,0,0,1,4214.857,6944.585Z" transform="translate(2261.406 14821.51) rotate(-135)" fill="#707070"/>
        </g>
        <circle id="Ellipse_3090" data-name="Ellipse 3090" cx="3" cy="3" r="3" transform="translate(4201.146 6921.503)" fill="#707070"/>
        <circle id="Ellipse_3091-2" data-name="Ellipse 3091" cx="3" cy="3" r="3" transform="translate(4230 6923.503)" fill="#707070"/>
        <circle id="Ellipse_3094-2" data-name="Ellipse 3094" cx="1.5" cy="1.5" r="1.5" transform="translate(4257.146 6949.374)" fill="#707070"/>
      </g>
    </g>
  </g>
</svg>
