<svg width="442" height="327" viewBox="0 0 442 327" fill="none" xmlns="http://www.w3.org/2000/svg">
<path d="M485.37 292.999C455.27 292.785 425.069 292.721 394.969 292.507C388.569 292.524 382.069 292.543 375.369 292.561C375.394 301.65 375.415 309.25 375.439 317.892C380.139 317.879 384.839 317.866 389.939 317.851C389.953 322.769 389.965 326.941 389.978 331.56C359.378 331.645 328.678 331.731 297.778 331.817C297.766 327.645 297.756 323.771 297.742 319.003C306.242 318.979 314.842 318.955 323.842 318.93C324.62 311.18 325.401 304.174 326.277 295.529C272.284 298.064 218.591 300.747 164.398 303.282C164.414 309.094 164.427 313.862 164.442 319.226C160.242 319.238 156.642 319.248 152.842 319.258C152.63 314.789 152.417 310.17 152.204 305.701C151.604 305.553 150.904 305.555 150.304 305.408C150.016 309.73 149.628 314.052 149.242 319.119C145.742 319.129 142.142 319.139 138.342 319.15C138.131 315.127 138.02 311.253 137.807 306.486C118.812 308.327 39.5901 330.422 20.7948 332.113C14.259 332.701 6.76858 343.158 1.75841 332.087C30.7379 309.664 147.45 286.045 180.542 283.271C228.53 279.114 276.62 275.403 324.71 271.544C327.409 271.387 328.908 270.787 329.294 266.018C333.458 217.132 338.322 168.245 341.985 119.212C344.202 89.4047 344.718 59.4532 345.834 29.5C346.209 20.4096 345.884 11.3211 345.856 1.33785C348.851 -0.458571 350.659 2.36749 352.373 7.57789C354.693 14.7237 355.513 21.8737 355.335 29.7714C354.629 63.4487 355.124 97.4205 353.718 130.951C351.842 175.509 348.566 219.921 345.99 264.332C345.895 266.27 345.801 268.207 345.607 270.442C350.007 270.43 354.007 270.419 359.307 270.404C352.473 186.682 357.14 103.226 358.106 19.3333C360.306 19.3272 362.106 19.3222 365.106 19.3138C362.941 103.508 365.575 187.242 376.111 271.996C395.111 271.943 414.611 271.74 434.111 271.835C451.212 272.085 468.414 272.782 485.515 273.181C485.335 280.185 485.353 286.592 485.37 292.999ZM341.94 317.985C347.84 317.969 353.04 317.954 358.24 317.94C358.217 309.894 358.196 302.444 358.176 295.291C353.076 295.306 348.376 295.319 343.576 295.332C342.998 303.082 342.418 310.236 341.94 317.985Z" fill="#E5E5E5"/>
<path d="M149.85 321.949C155.35 321.933 160.749 321.769 166.25 322.052C167.25 322.049 168.256 324.132 169.259 325.173C168.361 326.069 167.466 327.86 166.466 327.863C155.167 328.043 143.867 328.075 132.666 327.957C131.766 327.959 130.861 326.174 129.859 325.134C130.856 324.088 131.85 322.148 132.85 321.996C138.549 321.831 144.25 321.964 149.85 321.949Z" fill="#E5E5E5"/>
<path d="M341.94 317.985C342.518 310.236 342.998 303.082 343.576 295.332C348.376 295.319 353.076 295.306 358.176 295.291C358.196 302.444 358.217 309.894 358.239 317.94C353.04 317.954 347.84 317.969 341.94 317.985Z" fill="white"/>
<path d="M345.685 47.5301L159.355 287.949" stroke="#E5E5E5"/>
<path d="M344.701 53.4928L164.355 287.935" stroke="#E5E5E5"/>
<path d="M344.734 65.4134L184.355 287.879" stroke="#E5E5E5"/>
<path d="M344.772 78.8238L201.355 287.832" stroke="#E5E5E5"/>
<path d="M344.822 96.7042L219.346 284.801" stroke="#E5E5E5"/>
<path d="M344.834 101.174L257.33 278.735" stroke="#E5E5E5"/>
<path d="M344.843 104.154L277.329 278.679" stroke="#E5E5E5"/>
<path d="M364.861 110.804L437.323 275.998" stroke="#E5E5E5"/>
<path d="M362.834 101.124L471.325 276.648" stroke="#E5E5E5"/>
<path d="M362.814 93.6738L487.325 276.603" stroke="#E5E5E5"/>
<path d="M360.76 74.3087L499.325 276.569" stroke="#E5E5E5"/>
<path d="M362.726 62.3829L489.212 236.366" stroke="#E5E5E5"/>
<path d="M360.701 53.4485L489.167 219.976" stroke="#E5E5E5"/>
<path d="M357.693 50.4764L491.108 199.11" stroke="#E5E5E5"/>
</svg>
